<?xml version="1.0" encoding="iso-8859-1"?>
<!-- Uploaded to: SVG Repo, www.svgrepo.com, Generator: SVG Repo Mixer Tools -->
<svg fill="#000000" height="800px" width="800px" version="1.1" id="Capa_1" xmlns="http://www.w3.org/2000/svg" xmlns:xlink="http://www.w3.org/1999/xlink" 
	 viewBox="0 0 463 463" xml:space="preserve">
<g>
	<path d="M319,417.234V221.766c9.29-3.138,16-11.93,16-22.266c0-12.958-10.542-23.5-23.5-23.5H311v-31.202
		c0-13.58-8.655-25.589-21.538-29.883l-20.649-6.883c-3.477-1.159-5.813-4.399-5.813-8.063v-2.976c9.805-10.174,16-25,16-41.491
		c0-10.688-2.59-25.799-6.816-40.5H288v72.5c0,4.142,3.357,7.5,7.5,7.5s7.5-3.358,7.5-7.5v-80c0-4.142-3.357-7.5-7.5-7.5h-128
		c-4.143,0-7.5,3.358-7.5,7.5s3.357,7.5,7.5,7.5h23.315C186.59,29.699,184,44.81,184,55.5c0,16.491,6.195,31.317,16,41.491v2.976
		c0,3.664-2.336,6.905-5.813,8.063l-20.649,6.883C160.655,119.209,152,131.218,152,144.798V176h-0.5
		c-12.958,0-23.5,10.542-23.5,23.5c0,10.336,6.71,19.128,16,22.266v195.469c-9.29,3.138-16,11.93-16,22.266
		c0,12.958,10.542,23.5,23.5,23.5h160c12.958,0,23.5-10.542,23.5-23.5C335,429.164,328.29,420.372,319,417.234z M159,416V223h145
		v193H159z M231.5,120c-4.143,0-7.5,3.358-7.5,7.5v7.612c-8.506-2.017-15.899-7.405-20.421-14.998
		c4.946-2.96,8.612-7.622,10.329-13.077c5.445,2.547,11.378,3.962,17.592,3.962s12.147-1.416,17.592-3.962
		c1.717,5.454,5.383,10.117,10.329,13.077c-4.522,7.594-11.915,12.981-20.421,14.998V127.5C239,123.358,235.643,120,231.5,120z
		 M256.519,15c1.753,5.619,3.267,11.41,4.466,17h-58.97c1.199-5.59,2.713-11.381,4.466-17H256.519z M199.527,47h63.945
		c0.339,3.098,0.528,5.974,0.528,8.5c0,22.332-14.579,40.5-32.5,40.5S199,77.832,199,55.5C199,52.974,199.189,50.098,199.527,47z
		 M167,144.798c0-7.113,4.534-13.404,11.282-15.653l11.088-3.696C197.511,141.071,213.709,151,231.5,151
		c17.793,0,33.989-9.929,42.13-25.551l11.088,3.696c6.748,2.249,11.282,8.54,11.282,15.653V176h-17v-8.5c0-4.142-3.357-7.5-7.5-7.5
		s-7.5,3.358-7.5,7.5v8.5h-65v-8.5c0-4.142-3.357-7.5-7.5-7.5s-7.5,3.358-7.5,7.5v8.5h-17V144.798z M151.5,191h160
		c4.687,0,8.5,3.813,8.5,8.5s-3.813,8.5-8.5,8.5h-160c-4.687,0-8.5-3.813-8.5-8.5S146.813,191,151.5,191z M311.5,448h-160
		c-4.687,0-8.5-3.813-8.5-8.5s3.813-8.5,8.5-8.5h160c4.687,0,8.5,3.813,8.5,8.5S316.187,448,311.5,448z"/>
	<path d="M255.5,248h-48c-12.958,0-23.5,10.542-23.5,23.5s10.542,23.5,23.5,23.5h48c12.958,0,23.5-10.542,23.5-23.5
		S268.458,248,255.5,248z M255.5,280h-48c-4.687,0-8.5-3.813-8.5-8.5s3.813-8.5,8.5-8.5h48c4.687,0,8.5,3.813,8.5,8.5
		S260.187,280,255.5,280z"/>
</g>
</svg>